# xmcd
#
# Track frame offsets:
#	150
#	21664
#	42607
#	60054
#	76352
#	94436
#	128362
#	152490
#	164763
#	185880
#
# Disc length: 2717 seconds
#
# Revision: 1
# Processed by: cddbd v1.5.1PL2 Copyright (c) Steve Scherf et al.
# Submitted via: EasyCDDAExtractor 8.0.2.1
#
DISCID=830a9b0a
DTITLE=Scorpions - Centrum Worcester 23-04-91 Disc 1
DYEAR=1991
DGENRE=Hard Rock
TTITLE0=Tease Me Please Me
TTITLE1=Lust Or Love
TTITLE2=Bad Boys Running Wild
TTITLE3=Make It Real
TTITLE4=Hit Between The Eyes
TTITLE5=The Zoo
TTITLE6=Wind Of Change
TTITLE7=Can't Explain
TTITLE8=Don't Believe Her
TTITLE9=Rhythm Of Love
EXTD=
EXTT0=
EXTT1=
EXTT2=
EXTT3=
EXTT4=
EXTT5=
EXTT6=
EXTT7=
EXTT8=
EXTT9=
PLAYORDER=
